<svg width="35" height="35" viewBox="0 0 35 35" fill="none" xmlns="http://www.w3.org/2000/svg">
<g clip-path="url(#clip0_2970_347)">
<path d="M26.25 16.0417C26.25 17.0188 26.25 17.9813 26.25 18.9584C28 18.9584 30.275 18.9584 32.0833 18.9584C32.0833 17.9813 32.0833 17.0188 32.0833 16.0417C30.275 16.0417 28 16.0417 26.25 16.0417Z" fill="#485BFF"/>
<path d="M23.3334 25.6812C24.7334 26.7166 26.5563 28.0874 28 29.1666C28.5834 28.3937 29.1667 27.6062 29.75 26.8333C28.3063 25.7541 26.4834 24.3833 25.0834 23.3333C24.5 24.1208 23.9167 24.9083 23.3334 25.6812Z" fill="#485BFF"/>
<path d="M29.75 8.16659C29.1667 7.39367 28.5834 6.60617 28 5.83325C26.5563 6.91242 24.7334 8.28325 23.3334 9.33325C23.9167 10.1062 24.5 10.8937 25.0834 11.6666C26.4834 10.6166 28.3063 9.26034 29.75 8.16659Z" fill="#485BFF"/>
<path d="M5.83329 13.125C4.22913 13.125 2.91663 14.4375 2.91663 16.0417V18.9583C2.91663 20.5625 4.22913 21.875 5.83329 21.875H7.29163V27.7083H10.2083V21.875H11.6666L18.9583 26.25V8.75L11.6666 13.125H5.83329ZM13.1687 15.6188L16.0416 13.8979V21.1021L13.1687 19.3813L12.4687 18.9583H11.6666H5.83329V16.0417H11.6666H12.4687L13.1687 15.6188Z" fill="#485BFF"/>
<path d="M22.6041 17.4999C22.6041 15.5603 21.7583 13.8103 20.4166 12.6145V22.3708C21.7583 21.1895 22.6041 19.4395 22.6041 17.4999Z" fill="#485BFF"/>
</g>
<defs>
<clipPath id="clip0_2970_347">
<rect width="35" height="35" fill="white"/>
</clipPath>
</defs>
</svg>
