<svg width="35" height="35" viewBox="0 0 35 35" fill="none" xmlns="http://www.w3.org/2000/svg">
<path d="M1.45825 32.0541C1.45825 32.8707 2.1145 33.527 2.93117 33.527H21.8749C22.6916 33.527 23.3478 32.8707 23.3478 32.0541V30.6249H1.45825V32.0541ZM12.3958 13.1103C6.927 13.1103 1.45825 16.0416 1.45825 21.8749H23.3333C23.3333 16.0416 17.8645 13.1103 12.3958 13.1103ZM5.27908 18.9583C6.89783 16.6978 10.3395 16.027 12.3958 16.027C14.452 16.027 17.8937 16.6978 19.5124 18.9583H5.27908ZM1.45825 24.7916H23.3333V27.7083H1.45825V24.7916ZM26.2499 7.29158V1.45825H23.3333V7.29158H16.0416L16.377 10.2083H30.3187L28.277 30.6249H26.2499V33.5416H28.7582C29.9832 33.5416 30.9895 32.5937 31.1353 31.3978L33.5416 7.29158H26.2499Z" fill="#18CA95"/>
</svg>
