<svg width="35" height="35" viewBox="0 0 35 35" fill="none" xmlns="http://www.w3.org/2000/svg">
<path d="M32.0834 17.5001C32.0834 15.8959 30.7709 14.5834 29.1667 14.5834V10.2084C29.1667 8.60425 27.8542 7.29175 26.2501 7.29175H8.75008C7.14591 7.29175 5.83341 8.60425 5.83341 10.2084V14.5834C4.22925 14.5834 2.91675 15.8959 2.91675 17.5001V24.7917H4.85633L5.83341 27.7084H7.29175L8.26883 24.7917H26.7459L27.7084 27.7084H29.1667L30.1438 24.7917H32.0834V17.5001ZM26.2501 14.5834H18.9584V10.2084H26.2501V14.5834ZM8.75008 10.2084H16.0417V14.5834H8.75008V10.2084ZM5.83341 17.5001H29.1667V21.8751H5.83341V17.5001Z" fill="#7838FF"/>
</svg>
