<svg width="35" height="35" viewBox="0 0 35 35" fill="none" xmlns="http://www.w3.org/2000/svg">
<path d="M31.9376 12.9646L30.4063 6.59167C30.0855 5.27917 28.948 4.375 27.6209 4.375H7.36466C6.05216 4.375 4.90007 5.29375 4.59382 6.59167L3.06257 12.9646C2.71257 14.4521 3.0334 15.9688 3.96674 17.1646C4.0834 17.325 4.24382 17.4417 4.37507 17.5875V27.7083C4.37507 29.3125 5.68757 30.625 7.29174 30.625H27.7084C29.3126 30.625 30.6251 29.3125 30.6251 27.7083V17.5875C30.7563 17.4563 30.9167 17.325 31.0334 17.1792C31.9667 15.9833 32.3022 14.4521 31.9376 12.9646ZM27.5772 7.27708L29.1084 13.65C29.2542 14.2625 29.123 14.875 28.7438 15.3562C28.5397 15.6187 28.1022 16.0417 27.373 16.0417C26.4834 16.0417 25.7105 15.3271 25.6084 14.3792L24.7626 7.29167L27.5772 7.27708ZM18.9584 7.29167H21.8167L22.6042 13.8833C22.6772 14.4521 22.5022 15.0208 22.123 15.4438C21.8022 15.8229 21.3355 16.0417 20.7376 16.0417C19.7605 16.0417 18.9584 15.1812 18.9584 14.1312V7.29167ZM12.3813 13.8833L13.1834 7.29167H16.0417V14.1312C16.0417 15.1812 15.2397 16.0417 14.1605 16.0417C13.6647 16.0417 13.2126 15.8229 12.8626 15.4438C12.498 15.0208 12.323 14.4521 12.3813 13.8833ZM5.89174 13.65L7.36466 7.29167H10.2376L9.39174 14.3792C9.27507 15.3271 8.51674 16.0417 7.62716 16.0417C6.91257 16.0417 6.46049 15.6187 6.27091 15.3562C5.87715 14.8896 5.7459 14.2625 5.89174 13.65ZM7.29174 27.7083V18.9146C7.4084 18.9292 7.51049 18.9583 7.62716 18.9583C8.89591 18.9583 10.048 18.4333 10.8938 17.5729C11.7688 18.4479 12.9355 18.9583 14.2626 18.9583C15.5313 18.9583 16.6688 18.4333 17.5147 17.6021C18.3751 18.4333 19.5417 18.9583 20.8542 18.9583C22.0792 18.9583 23.2459 18.4479 24.1209 17.5729C24.9667 18.4333 26.1188 18.9583 27.3876 18.9583C27.5042 18.9583 27.6063 18.9292 27.723 18.9146V27.7083H7.29174Z" fill="#FFB320"/>
</svg>
