<svg width="35" height="35" viewBox="0 0 35 35" fill="none" xmlns="http://www.w3.org/2000/svg">
<path d="M19.7116 12.7066L20.4201 12.1549C20.7272 11.9158 20.8374 11.5093 20.6913 11.1538L19.7392 8.83712C19.6037 8.50728 19.2755 8.29102 18.9105 8.29102H16.0544C15.6894 8.29102 15.3612 8.50728 15.2257 8.83712L14.2736 11.1538C14.1276 11.5092 14.2377 11.9157 14.5448 12.1549L15.2533 12.7066C10.3496 13.8077 7.58044 17.4999 7.58044 22.1333C7.58044 26.7668 11.6141 31.8056 17.4825 31.8056C22.9617 31.8056 27.4194 27.4666 27.4194 22.1333C27.4194 17.5458 24.1211 13.6941 19.7116 12.7066ZM16.6586 10.0285H18.3062L18.788 11.2007L17.4825 12.2173L16.177 11.2007L16.6586 10.0285ZM17.4825 30.0681C12.9875 30.0681 9.33057 26.5086 9.33057 22.1333C9.33057 17.7581 12.9875 14.1986 17.4825 14.1986C21.9774 14.1986 25.6344 17.7581 25.6344 22.1333C25.6344 26.5086 21.9774 30.0681 17.4825 30.0681Z" fill="#3183FF"/>
<path fill-rule="evenodd" clip-rule="evenodd" d="M14.9571 8.73519C15.1356 8.30085 15.5692 8.01343 16.0544 8.01343H18.9106C19.3958 8.01343 19.8294 8.30085 20.0079 8.73519L20.9599 11.0519C21.152 11.5192 21.0078 12.0548 20.6019 12.3708L20.3361 12.5778C24.5921 13.783 27.7083 17.6116 27.7083 22.1335C27.7083 27.6169 23.1246 32.0834 17.4825 32.0834C11.4297 32.0834 7.29163 26.8952 7.29163 22.1335C7.29163 17.5587 9.93374 13.8575 14.6263 12.5758L14.363 12.3708C13.9571 12.0547 13.813 11.5192 14.005 11.0519C14.005 11.0519 14.005 11.0519 14.005 11.0519L14.9571 8.73519ZM16.0544 8.56883C15.8097 8.56883 15.5869 8.71394 15.4943 8.93928L14.5423 11.256C14.4422 11.4994 14.5183 11.777 14.7266 11.9392L15.8938 12.8481L15.319 12.9771C10.5543 14.047 7.8693 17.6207 7.8693 22.1335C7.8693 26.6385 11.7984 31.528 17.4825 31.528C22.7989 31.528 27.1306 27.3166 27.1306 22.1335C27.1306 17.6759 23.9258 13.9356 19.6461 12.9772L19.0708 12.8483L20.2383 11.9392C20.4466 11.7771 20.5228 11.4995 20.4227 11.256L19.4706 8.93928C19.378 8.71394 19.1553 8.56883 18.9106 8.56883H16.0544ZM16.4622 9.75096H18.5027L19.1345 11.2884L17.4825 12.5748L15.8305 11.2884L16.4622 9.75096ZM16.8551 10.3064L16.5235 11.1133L17.4825 11.8601L18.4414 11.1133L18.1098 10.3064H16.8551ZM17.4825 14.4764C13.1504 14.4764 9.61942 17.9084 9.61942 22.1335C9.61942 26.3585 13.1504 29.7905 17.4825 29.7905C21.8146 29.7905 25.3455 26.3585 25.3455 22.1335C25.3455 17.9084 21.8146 14.4764 17.4825 14.4764ZM9.04175 22.1335C9.04175 17.6081 12.8247 13.921 17.4825 13.921C22.1403 13.921 25.9232 17.6081 25.9232 22.1335C25.9232 26.6588 22.1403 30.3459 17.4825 30.3459C12.8247 30.3459 9.04175 26.6588 9.04175 22.1335Z" fill="#3183FF"/>
<path d="M17.4823 6.32189C17.9752 6.32189 18.3748 5.93292 18.3748 5.45313V4.0631C18.3748 3.58331 17.9752 3.19434 17.4823 3.19434C16.9893 3.19434 16.5897 3.58331 16.5897 4.0631V5.45313C16.5897 5.93292 16.9893 6.32189 17.4823 6.32189Z" fill="#3183FF"/>
<path fill-rule="evenodd" clip-rule="evenodd" d="M16.3009 4.06322C16.3009 3.43329 16.8265 2.91675 17.4823 2.91675C18.1381 2.91675 18.6637 3.43329 18.6637 4.06322V5.45324C18.6637 6.08317 18.1381 6.59971 17.4823 6.59971C16.8265 6.59971 16.3009 6.08317 16.3009 5.45324V4.06322ZM17.4823 3.47215C17.1522 3.47215 16.8786 3.73356 16.8786 4.06322V5.45324C16.8786 5.78289 17.1522 6.0443 17.4823 6.0443C17.8123 6.0443 18.086 5.78289 18.086 5.45324V4.06322C18.086 3.73356 17.8123 3.47215 17.4823 3.47215Z" fill="#3183FF"/>
<path d="M13.5191 6.99423C13.8677 7.33351 14.4328 7.33357 14.7814 6.99423C15.13 6.65495 15.13 6.1049 14.7814 5.76562L13.8293 4.83893C13.4808 4.49965 12.9157 4.49965 12.5671 4.83893C12.2185 5.17822 12.2185 5.72826 12.5671 6.06754L13.5191 6.99423Z" fill="#3183FF"/>
<path fill-rule="evenodd" clip-rule="evenodd" d="M14.0322 4.64023C13.5705 4.1909 12.8205 4.19087 12.3589 4.64023C11.8992 5.08768 11.8992 5.8117 12.3589 6.25915L13.3109 7.18577C13.3109 7.18579 13.3109 7.18574 13.3109 7.18577C13.5413 7.41009 13.8446 7.52287 14.1476 7.52287C15.1962 7.52287 15.7253 6.28836 14.9842 5.56693L14.0322 4.64023ZM12.7699 5.03052C13.0054 4.80134 13.3857 4.80131 13.6212 5.03054L14.5732 5.95721C14.5732 5.95722 14.5732 5.95721 14.5732 5.95721C14.9598 6.33355 14.6749 6.96747 14.1476 6.96747C13.9937 6.96747 13.8401 6.91063 13.722 6.7956L12.7699 5.86884C12.5325 5.63773 12.5325 5.26164 12.7699 5.03052Z" fill="#3183FF"/>
<path d="M20.8147 7.24872C21.0431 7.24872 21.2715 7.16393 21.4458 6.99423L22.3978 6.06754C22.7464 5.72826 22.7464 5.17822 22.3978 4.83893C22.0493 4.49965 21.4841 4.49965 21.1356 4.83893L20.1835 5.76562C19.6197 6.31451 20.0267 7.24872 20.8147 7.24872Z" fill="#3183FF"/>
<path fill-rule="evenodd" clip-rule="evenodd" d="M20.9301 4.6439C21.3918 4.19456 22.1417 4.19453 22.6033 4.6439C23.063 5.09134 23.063 5.81536 22.6033 6.26281L21.6514 7.18943C21.6513 7.18945 21.6514 7.18941 21.6514 7.18943C21.421 7.41375 21.1177 7.52654 20.8147 7.52654C19.7661 7.52654 19.237 6.29203 19.9781 5.57059L20.9301 4.6439ZM22.1923 5.03418C21.9569 4.805 21.5766 4.80498 21.3411 5.0342L20.3891 5.96088C20.3891 5.96088 20.3891 5.96087 20.3891 5.96088C20.0025 6.33722 20.2874 6.97113 20.8147 6.97113C20.9686 6.97113 21.1221 6.91429 21.2402 6.79926L22.1924 5.87251C22.4298 5.64139 22.4298 5.2653 22.1923 5.03418Z" fill="#3183FF"/>
<path fill-rule="evenodd" clip-rule="evenodd" d="M11.3538 22.1335C11.3538 18.8684 14.0734 16.168 17.4826 16.168C20.862 16.168 23.6114 18.8441 23.6114 22.1335C23.6114 25.4229 20.862 28.099 17.4826 28.099C14.0759 28.099 11.3538 25.4015 11.3538 22.1335ZM17.4825 26.3866C19.8957 26.3866 21.852 24.4824 21.852 22.1335C21.852 19.7846 19.8957 17.8804 17.4825 17.8804C15.0693 17.8804 13.1131 19.7846 13.1131 22.1335C13.1131 24.4824 15.0693 26.3866 17.4825 26.3866Z" fill="#3183FF"/>
<path fill-rule="evenodd" clip-rule="evenodd" d="M11.0648 22.1336C11.0648 18.72 13.9088 15.8904 17.4825 15.8904C21.0247 15.8904 23.9001 18.6941 23.9001 22.1336C23.9001 25.5731 21.0247 28.3768 17.4825 28.3768C13.9114 28.3768 11.0648 25.5503 11.0648 22.1336ZM17.4825 16.4458C14.2378 16.4458 11.6425 19.0171 11.6425 22.1336C11.6425 25.2529 14.2402 27.8214 17.4825 27.8214C20.699 27.8214 23.3224 25.2728 23.3224 22.1336C23.3224 18.9944 20.699 16.4458 17.4825 16.4458ZM17.4824 18.1582C15.2321 18.1582 13.4018 19.9348 13.4018 22.1336C13.4018 24.3324 15.2321 26.109 17.4824 26.109C19.7328 26.109 21.5631 24.3324 21.5631 22.1336C21.5631 19.9348 19.7328 18.1582 17.4824 18.1582ZM12.8241 22.1336C12.8241 19.6346 14.9064 17.6028 17.4824 17.6028C20.0585 17.6028 22.1408 19.6346 22.1408 22.1336C22.1408 24.6326 20.0585 26.6644 17.4824 26.6644C14.9064 26.6644 12.8241 24.6326 12.8241 22.1336Z" fill="#3183FF"/>
</svg>
